<svg width="40" height="40" viewBox="0 0 40 40" fill="none" xmlns="http://www.w3.org/2000/svg">
    <path d="M28 6H12V8H10V10H8V14H6V26H8V30H10V32H12V34H28V32H30V30H32V26H34V14H32V10H30V8H28V6Z" fill="white"/>
    <rect x="12" y="2" width="2" height="2" fill="white"/>
    <rect x="12" y="36" width="2" height="2" fill="#E1E1E2"/>
    <rect x="14" y="2" width="2" height="2" fill="#E1E1E2"/>
    <rect x="14" y="36" width="2" height="2" fill="#E1E1E2"/>
    <rect x="16" y="2" width="2" height="2" fill="#E1E1E2"/>
    <rect x="16" y="36" width="2" height="2" fill="#E1E1E2"/>
    <rect x="18" y="2" width="2" height="2" fill="#E1E1E2"/>
    <rect x="18" y="36" width="2" height="2" fill="#E1E1E2"/>
    <rect x="20" y="2" width="2" height="2" fill="#E1E1E2"/>
    <rect x="20" y="36" width="2" height="2" fill="#E1E1E2"/>
    <rect x="22" y="2" width="2" height="2" fill="#E1E1E2"/>
    <rect x="22" y="36" width="2" height="2" fill="#E1E1E2"/>
    <rect x="24" y="2" width="2" height="2" fill="#E1E1E2"/>
    <rect x="24" y="36" width="2" height="2" fill="#E1E1E2"/>
    <rect x="26" y="2" width="2" height="2" fill="#E1E1E2"/>
    <rect x="26" y="36" width="2" height="2" fill="#D0D0D5"/>
    <rect width="2" height="2" transform="matrix(0 1 1 0 34 12)" fill="#E1E1E2"/>
    <rect width="2" height="2" transform="matrix(0 1 1 0 36 14)" fill="#E1E1E2"/>
    <rect width="2" height="2" transform="matrix(0 1 1 0 36 16)" fill="#E1E1E2"/>
    <rect width="2" height="2" transform="matrix(0 1 1 0 36 18)" fill="#E1E1E2"/>
    <rect width="2" height="2" transform="matrix(0 1 1 0 36 20)" fill="#E1E1E2"/>
    <rect width="2" height="2" transform="matrix(0 1 1 0 36 22)" fill="#E1E1E2"/>
    <rect width="2" height="2" transform="matrix(0 1 1 0 36 24)" fill="#E1E1E2"/>
    <rect width="2" height="2" transform="matrix(0 1 1 0 34 26)" fill="#D0D0D5"/>
    <rect x="10" y="4" width="2" height="2" fill="white"/>
    <rect x="28" y="4" width="2" height="2" fill="#E1E1E2"/>
    <rect x="32" y="8" width="2" height="2" fill="#E1E1E2"/>
    <rect x="8" y="6" width="2" height="2" fill="white"/>
    <rect x="30" y="6" width="2" height="2" fill="#E1E1E2"/>
    <rect x="34" y="10" width="2" height="2" fill="#E1E1E2"/>
    <rect width="2" height="2" transform="matrix(1 0 0 -1 28 36)" fill="#D0D0D5"/>
    <rect width="2" height="2" transform="matrix(1 0 0 -1 32 32)" fill="#D0D0D5"/>
    <rect width="2" height="2" transform="matrix(1 0 0 -1 30 34)" fill="#D0D0D5"/>
    <rect width="2" height="2" transform="matrix(1 0 0 -1 34 30)" fill="#D0D0D5"/>
    <rect x="6" y="12" width="2" height="2" transform="rotate(90 6 12)" fill="#E1E1E2"/>
    <rect x="4" y="14" width="2" height="2" transform="rotate(90 4 14)" fill="#E1E1E2"/>
    <rect x="4" y="16" width="2" height="2" transform="rotate(90 4 16)" fill="#E1E1E2"/>
    <rect x="4" y="18" width="2" height="2" transform="rotate(90 4 18)" fill="#E1E1E2"/>
    <rect x="4" y="20" width="2" height="2" transform="rotate(90 4 20)" fill="#E1E1E2"/>
    <rect x="4" y="22" width="2" height="2" transform="rotate(90 4 22)" fill="#E1E1E2"/>
    <rect x="4" y="24" width="2" height="2" transform="rotate(90 4 24)" fill="#E1E1E2"/>
    <rect x="6" y="26" width="2" height="2" transform="rotate(90 6 26)" fill="#E1E1E2"/>
    <rect width="2" height="2" transform="matrix(-1 0 0 1 8 8)" fill="white"/>
    <rect width="2" height="2" transform="matrix(-1 0 0 1 6 10)" fill="white"/>
    <rect x="12" y="36" width="2" height="2" transform="rotate(180 12 36)" fill="#E1E1E2"/>
    <rect x="12" y="38" width="2" height="2" transform="rotate(180 12 38)" fill="#7A7D82"/>
    <rect x="8" y="32" width="2" height="2" transform="rotate(180 8 32)" fill="#E1E1E2"/>
    <rect x="8" y="34" width="2" height="2" transform="rotate(180 8 34)" fill="#7A7D82"/>
    <rect x="6" y="32" width="2" height="2" transform="rotate(180 6 32)" fill="#7A7D82"/>
    <rect x="4" y="30" width="2" height="2" transform="rotate(180 4 30)" fill="#7A7D82"/>
    <rect x="4" y="28" width="2" height="2" transform="rotate(180 4 28)" fill="#7A7D82"/>
    <rect x="2" y="26" width="2" height="2" transform="rotate(180 2 26)" fill="#7A7D82"/>
    <rect x="2" y="24" width="2" height="2" transform="rotate(180 2 24)" fill="#7A7D82"/>
    <rect x="2" y="22" width="2" height="2" transform="rotate(180 2 22)" fill="#7A7D82"/>
    <rect x="2" y="20" width="2" height="2" transform="rotate(180 2 20)" fill="#7A7D82"/>
    <rect x="2" y="18" width="2" height="2" transform="rotate(180 2 18)" fill="#7A7D82"/>
    <rect x="2" y="16" width="2" height="2" transform="rotate(180 2 16)" fill="#7A7D82"/>
    <rect x="10" y="34" width="2" height="2" transform="rotate(180 10 34)" fill="#E1E1E2"/>
    <rect x="10" y="36" width="2" height="2" transform="rotate(180 10 36)" fill="#7A7D82"/>
    <rect width="2" height="2" transform="matrix(1 0 0 -1 4 10)" fill="#989A9C"/>
    <rect width="2" height="2" transform="matrix(1 0 0 -1 6 8)" fill="#989A9C"/>
    <rect width="2" height="2" transform="matrix(1 0 0 -1 8 6)" fill="#989A9C"/>
    <rect width="2" height="2" transform="matrix(1 0 0 -1 10 4)" fill="#989A9C"/>
    <rect width="2" height="2" transform="matrix(1 0 0 -1 2 12)" fill="#7A7D82"/>
    <rect width="2" height="2" transform="matrix(1 0 0 -1 2 14)" fill="#7A7D82"/>
    <rect width="2" height="2" transform="matrix(1 0 0 -1 28 38)" fill="#6B6E71"/>
    <rect width="2" height="2" transform="matrix(1 0 0 -1 32 34)" fill="#6B6E71"/>
    <rect width="2" height="2" transform="matrix(1 0 0 -1 34 32)" fill="#6B6E71"/>
    <rect width="2" height="2" transform="matrix(1 0 0 -1 36 30)" fill="#6B6E71"/>
    <rect width="2" height="2" transform="matrix(1 0 0 -1 36 28)" fill="#6B6E71"/>
    <rect width="2" height="2" transform="matrix(1 0 0 -1 38 26)" fill="#6B6E71"/>
    <rect width="2" height="2" transform="matrix(1 0 0 -1 38 24)" fill="#7A7D82"/>
    <rect width="2" height="2" transform="matrix(1 0 0 -1 38 22)" fill="#7A7D82"/>
    <rect width="2" height="2" transform="matrix(1 0 0 -1 38 20)" fill="#7A7D82"/>
    <rect width="2" height="2" transform="matrix(1 0 0 -1 38 18)" fill="#7A7D82"/>
    <rect width="2" height="2" transform="matrix(1 0 0 -1 38 16)" fill="#7A7D82"/>
    <rect width="2" height="2" transform="matrix(-1 0 0 1 24 38)" fill="#7A7D82"/>
    <rect width="2" height="2" transform="matrix(-1 0 0 1 24 0)" fill="#7A7D82"/>
    <rect width="2" height="2" transform="matrix(-1 0 0 1 28 38)" fill="#6B6E71"/>
    <rect width="2" height="2" transform="matrix(-1 0 0 1 28 0)" fill="#7A7D82"/>
    <rect width="2" height="2" transform="matrix(-1 0 0 1 22 38)" fill="#7A7D82"/>
    <rect width="2" height="2" transform="matrix(-1 0 0 1 22 0)" fill="#7A7D82"/>
    <rect width="2" height="2" transform="matrix(-1 0 0 1 26 38)" fill="#7A7D82"/>
    <rect width="2" height="2" transform="matrix(-1 0 0 1 26 0)" fill="#7A7D82"/>
    <rect width="2" height="2" transform="matrix(-1 0 0 1 20 38)" fill="#7A7D82"/>
    <rect width="2" height="2" transform="matrix(-1 0 0 1 20 0)" fill="#7A7D82"/>
    <rect width="2" height="2" transform="matrix(-1 0 0 1 18 38)" fill="#7A7D82"/>
    <rect width="2" height="2" transform="matrix(-1 0 0 1 18 0)" fill="#7A7D82"/>
    <rect width="2" height="2" transform="matrix(-1 0 0 1 16 38)" fill="#7A7D82"/>
    <rect width="2" height="2" transform="matrix(-1 0 0 1 16 0)" fill="#7A7D82"/>
    <rect width="2" height="2" transform="matrix(-1 0 0 1 14 38)" fill="#7A7D82"/>
    <rect width="2" height="2" transform="matrix(-1 0 0 1 14 0)" fill="#989A9C"/>
    <rect width="2" height="2" transform="matrix(1 0 0 -1 30 36)" fill="#6B6E71"/>
    <rect x="36" y="10" width="2" height="2" transform="rotate(180 36 10)" fill="#7A7D82"/>
    <rect x="34" y="8" width="2" height="2" transform="rotate(180 34 8)" fill="#7A7D82"/>
    <rect x="32" y="6" width="2" height="2" transform="rotate(180 32 6)" fill="#7A7D82"/>
    <rect x="30" y="4" width="2" height="2" transform="rotate(180 30 4)" fill="#7A7D82"/>
    <rect x="38" y="12" width="2" height="2" transform="rotate(180 38 12)" fill="#7A7D82"/>
    <rect x="38" y="14" width="2" height="2" transform="rotate(180 38 14)" fill="#7A7D82"/>
    <rect x="34" y="12" width="2" height="2" transform="rotate(180 34 12)" fill="#7A7D82"/>
    <rect x="32" y="10" width="2" height="2" transform="rotate(180 32 10)" fill="#7A7D82"/>
    <rect x="30" y="8" width="2" height="2" transform="rotate(180 30 8)" fill="#7A7D82"/>
    <rect x="28" y="6" width="2" height="2" transform="rotate(180 28 6)" fill="#7A7D82"/>
    <rect x="26" y="6" width="2" height="2" transform="rotate(180 26 6)" fill="#7A7D82"/>
    <rect x="26" y="36" width="2" height="2" transform="rotate(180 26 36)" fill="#7A7D82"/>
    <rect x="24" y="6" width="2" height="2" transform="rotate(180 24 6)" fill="#7A7D82"/>
    <rect x="24" y="36" width="2" height="2" transform="rotate(180 24 36)" fill="#7A7D82"/>
    <rect x="22" y="6" width="2" height="2" transform="rotate(180 22 6)" fill="#7A7D82"/>
    <rect x="22" y="36" width="2" height="2" transform="rotate(180 22 36)" fill="#7A7D82"/>
    <rect x="34" y="14" width="2" height="2" transform="rotate(180 34 14)" fill="#7A7D82"/>
    <rect x="36" y="16" width="2" height="2" transform="rotate(180 36 16)" fill="#7A7D82"/>
    <rect x="36" y="18" width="2" height="2" transform="rotate(180 36 18)" fill="#7A7D82"/>
    <rect x="36" y="20" width="2" height="2" transform="rotate(180 36 20)" fill="#7A7D82"/>
    <rect width="2" height="2" transform="matrix(1 0 0 -1 6 12)" fill="#7A7D82"/>
    <rect width="2" height="2" transform="matrix(1 0 0 -1 8 10)" fill="#7A7D82"/>
    <rect width="2" height="2" transform="matrix(1 0 0 -1 10 8)" fill="#7A7D82"/>
    <rect width="2" height="2" transform="matrix(1 0 0 -1 12 6)" fill="#7A7D82"/>
    <rect width="2" height="2" transform="matrix(1 0 0 -1 14 6)" fill="#7A7D82"/>
    <rect width="2" height="2" transform="matrix(1 0 0 -1 16 6)" fill="#7A7D82"/>
    <rect width="2" height="2" transform="matrix(1 0 0 -1 18 6)" fill="#7A7D82"/>
    <rect width="2" height="2" transform="matrix(1 0 0 -1 6 14)" fill="#7A7D82"/>
    <rect width="2" height="2" transform="matrix(1 0 0 -1 4 16)" fill="#7A7D82"/>
    <rect width="2" height="2" transform="matrix(1 0 0 -1 4 18)" fill="#7A7D82"/>
    <rect width="2" height="2" transform="matrix(1 0 0 -1 4 20)" fill="#7A7D82"/>
    <rect x="6" y="28" width="2" height="2" fill="#7A7D82"/>
    <rect x="8" y="30" width="2" height="2" fill="#7A7D82"/>
    <rect x="10" y="32" width="2" height="2" fill="#7A7D82"/>
    <rect x="12" y="34" width="2" height="2" fill="#7A7D82"/>
    <rect x="14" y="34" width="2" height="2" fill="#7A7D82"/>
    <rect x="16" y="34" width="2" height="2" fill="#7A7D82"/>
    <rect x="18" y="34" width="2" height="2" fill="#7A7D82"/>
    <rect x="6" y="26" width="2" height="2" fill="#7A7D82"/>
    <rect x="4" y="24" width="2" height="2" fill="#7A7D82"/>
    <rect x="4" y="22" width="2" height="2" fill="#7A7D82"/>
    <rect x="4" y="20" width="2" height="2" fill="#7A7D82"/>
    <rect x="36" y="22" width="2" height="2" transform="rotate(180 36 22)" fill="#7A7D82"/>
    <rect x="36" y="24" width="2" height="2" transform="rotate(180 36 24)" fill="#7A7D82"/>
    <rect x="36" y="26" width="2" height="2" transform="rotate(180 36 26)" fill="#7A7D82"/>
    <rect x="34" y="28" width="2" height="2" transform="rotate(180 34 28)" fill="#7A7D82"/>
    <rect x="34" y="30" width="2" height="2" transform="rotate(180 34 30)" fill="#7A7D82"/>
    <rect x="32" y="32" width="2" height="2" transform="rotate(180 32 32)" fill="#7A7D82"/>
    <rect x="30" y="34" width="2" height="2" transform="rotate(180 30 34)" fill="#7A7D82"/>
    <rect x="28" y="36" width="2" height="2" transform="rotate(180 28 36)" fill="#7A7D82"/>
    <rect x="6" y="30" width="2" height="2" transform="rotate(180 6 30)" fill="#E1E1E2"/>
</svg>
