<svg width="24" height="24" viewBox="0 0 24 24" fill="none" xmlns="http://www.w3.org/2000/svg">
    <rect x="7" y="2" width="2" height="2" fill="#633517"/>
    <rect x="9" y="2" width="6" height="2" fill="#FFAF2F"/>
    <rect x="9" y="20" width="6" height="2" fill="#D58603"/>
    <rect x="9" y="18" width="6" height="2" fill="#D58603"/>
    <rect x="9" y="14" width="6" height="2" fill="#D58603"/>
    <rect x="9" y="16" width="6" height="2" fill="#FFAF2F"/>
    <rect x="9" y="12" width="6" height="2" fill="#FFAF2F"/>
    <rect x="9" y="10" width="6" height="2" fill="#FEE037"/>
    <rect x="9" y="4" width="6" height="2" fill="#FEE037"/>
    <rect x="9" y="6" width="6" height="2" fill="white"/>
    <rect x="9" y="8" width="6" height="2" fill="white"/>
    <rect x="15" y="2" width="2" height="2" fill="#633517"/>
    <rect x="11" width="2" height="2" fill="#633517"/>
    <rect x="13" width="2" height="2" fill="#633517"/>
    <rect x="9" width="2" height="2" fill="#633517"/>
    <rect x="11" y="22" width="2" height="2" fill="#633517"/>
    <rect x="13" y="22" width="2" height="2" fill="#633517"/>
    <rect x="9" y="22" width="2" height="2" fill="#633517"/>
    <rect x="7" y="4" width="2" height="2" fill="#633517"/>
    <rect x="15" y="4" width="2" height="2" fill="#633517"/>
    <rect x="7" y="6" width="2" height="2" fill="#633517"/>
    <rect x="15" y="6" width="2" height="2" fill="#633517"/>
    <rect x="7" y="8" width="2" height="2" fill="#633517"/>
    <rect x="15" y="8" width="2" height="2" fill="#633517"/>
    <rect x="7" y="10" width="2" height="2" fill="#633517"/>
    <rect x="15" y="10" width="2" height="2" fill="#633517"/>
    <rect x="7" y="12" width="2" height="2" fill="#633517"/>
    <rect x="15" y="12" width="2" height="2" fill="#633517"/>
    <rect x="7" y="14" width="2" height="2" fill="#633517"/>
    <rect x="15" y="14" width="2" height="2" fill="#633517"/>
    <rect x="7" y="16" width="2" height="2" fill="#633517"/>
    <rect x="15" y="16" width="2" height="2" fill="#633517"/>
    <rect x="7" y="18" width="2" height="2" fill="#633517"/>
    <rect x="15" y="18" width="2" height="2" fill="#633517"/>
    <rect x="7" y="20" width="2" height="2" fill="#633517"/>
    <rect x="15" y="20" width="2" height="2" fill="#633517"/>
</svg>
