<svg width="62" height="59" viewBox="0 0 62 59" fill="none" xmlns="http://www.w3.org/2000/svg">
    <path d="M32.8951 39.5818L33.0309 41.0756L32.8951 39.5818ZM43.3348 38.6327L43.199 37.1389L43.3348 38.6327ZM47.7711 34.7009L49.2378 35.0152H49.2378L47.7711 34.7009ZM49.5662 26.324L48.0995 26.0097L48.0995 26.0097L49.5662 26.324ZM51.738 23.1744L52.5532 24.4336L51.738 23.1744ZM24.7237 48.5495L23.4719 47.7231L24.7237 48.5495ZM29.175 41.8066L30.4269 42.633L29.175 41.8066ZM37.1506 46.9709L36.9616 45.4829H36.9616L37.1506 46.9709ZM39.7503 47.3354L39.1594 48.7141L39.1594 48.7141L39.7503 47.3354ZM44.9091 51.1782C45.6706 51.5046 46.5524 51.1519 46.8787 50.3904C47.2051 49.629 46.8523 48.7471 46.0909 48.4208L44.9091 51.1782ZM9.16539 5.10875L10.2017 4.02431L9.16539 5.10875ZM9.67992 2.68464L10.1864 4.09655L9.67992 2.68464ZM34.3215 25.7289L35.7903 26.033L34.3215 25.7289ZM31.6223 26.5697L30.5859 27.6542L31.6223 26.5697ZM30.5934 13.7607L29.557 14.8451L30.5934 13.7607ZM21.6654 5.22861L22.7017 4.14418V4.14418L21.6654 5.22861ZM29.2728 5.10772L30.3091 4.02329V4.02329L29.2728 5.10772ZM31.116 6.86916L30.0796 7.95359L31.116 6.86916ZM6.01207 33.138L7.04841 32.0536H7.04841L6.01207 33.138ZM4.1689 31.3766L3.13256 32.461L4.1689 31.3766ZM4.07272 27.135L5.15715 28.1714L4.07272 27.135ZM10.2536 33.0418L11.3381 34.0782L10.2536 33.0418ZM31.2122 11.1107L30.1277 10.0744L31.2122 11.1107ZM25.0313 5.2039L23.9468 4.16756V4.16756L25.0313 5.2039ZM58.5 17.8258V52.2995H61.5V17.8258H58.5ZM55 55.7995H18.9474V58.7995H55V55.7995ZM18.9474 55.7995H0V58.7995H18.9474V55.7995ZM58.5 6.29953V17.8258H61.5V6.29953H58.5ZM33.0309 41.0756L43.4706 40.1266L43.199 37.1389L32.7593 38.088L33.0309 41.0756ZM49.2378 35.0152L51.0329 26.6383L48.0995 26.0097L46.3044 34.3866L49.2378 35.0152ZM52.5532 24.4336L60.8152 19.085L59.1848 16.5667L50.9229 21.9152L52.5532 24.4336ZM20.1992 58.1259L25.9755 49.3759L23.4719 47.7231L17.6955 56.4731L20.1992 58.1259ZM25.9755 49.3759L30.4269 42.633L27.9232 40.9802L23.4719 47.7231L25.9755 49.3759ZM24.9127 50.0376L37.3396 48.459L36.9616 45.4829L24.5347 47.0615L24.9127 50.0376ZM39.1594 48.7141L44.9091 51.1782L46.0909 48.4208L40.3411 45.9566L39.1594 48.7141ZM51.0329 26.6383C51.2273 25.7309 51.7742 24.9379 52.5532 24.4336L50.9229 21.9152C49.4761 22.8518 48.4606 24.3245 48.0995 26.0097L51.0329 26.6383ZM43.4706 40.1266C46.3046 39.8689 48.6416 37.7978 49.2378 35.0152L46.3044 34.3866C45.9834 35.8849 44.725 37.0002 43.199 37.1389L43.4706 40.1266ZM37.3396 48.459C37.9581 48.3804 38.5863 48.4685 39.1594 48.7141L40.3412 45.9566C39.2769 45.5005 38.1102 45.337 36.9616 45.4829L37.3396 48.459ZM32.7593 38.088C30.7914 38.2668 29.0118 39.3312 27.9232 40.9802L30.4269 42.633C31.013 41.7451 31.9713 41.172 33.0309 41.0756L32.7593 38.088ZM58.5 52.2995C58.5 54.2325 56.933 55.7995 55 55.7995V58.7995C58.5899 58.7995 61.5 55.8894 61.5 52.2995H58.5ZM20.629 6.31305L29.557 14.8451L31.6297 12.6763L22.7017 4.14418L20.629 6.31305ZM32.6586 25.4853L10.2017 4.02431L8.12905 6.19318L30.5859 27.6542L32.6586 25.4853ZM10.2017 4.02431C10.1996 4.02223 10.2016 4.02376 10.2049 4.02923C10.208 4.03447 10.2107 4.04045 10.2124 4.04634C10.2156 4.0574 10.2145 4.06338 10.2142 4.0647C10.2139 4.06603 10.2125 4.07194 10.2051 4.08074C10.2011 4.08542 10.1963 4.08983 10.1913 4.09333C10.186 4.09699 10.1836 4.09756 10.1864 4.09655L9.17344 1.27273C7.10465 2.01486 6.54008 4.67467 8.12905 6.19318L10.2017 4.02431ZM32.8526 25.4249C32.8454 25.4596 32.8345 25.473 32.8277 25.4803C32.8174 25.4911 32.7993 25.5041 32.7734 25.5122C32.7475 25.5203 32.7252 25.5199 32.7106 25.5167C32.7009 25.5146 32.6843 25.5098 32.6586 25.4853L30.5859 27.6542C32.3554 29.3451 35.2942 28.4297 35.7903 26.033L32.8526 25.4249ZM29.557 14.8451C32.406 17.5678 33.6514 21.566 32.8526 25.4249L35.7903 26.033C36.7988 21.1612 35.2265 16.1135 31.6297 12.6763L29.557 14.8451ZM22.7017 4.14418C19.1 0.702212 13.8628 -0.409421 9.17344 1.27273L10.1864 4.09655C13.8061 2.79807 17.8488 3.65615 20.629 6.31305L22.7017 4.14418ZM28.2365 6.19216L30.0796 7.95359L32.1523 5.78473L30.3091 4.02329L28.2365 6.19216ZM7.04841 32.0536L5.20524 30.2921L3.13256 32.461L4.97573 34.2224L7.04841 32.0536ZM5.15715 28.1714L18.5845 14.121L16.4156 12.0483L2.98828 26.0987L5.15715 28.1714ZM22.6159 17.9348L9.16919 32.0055L11.3381 34.0782L24.7848 20.0075L22.6159 17.9348ZM30.1277 10.0744L28.5138 11.7632L30.6827 13.8359L32.2966 12.147L30.1277 10.0744ZM24.4182 8.01651L26.1157 6.24025L23.9468 4.16756L22.2493 5.94383L24.4182 8.01651ZM4.97573 34.2224C6.77248 35.9395 9.62099 35.8749 11.3381 34.0782L9.16919 32.0055C8.59683 32.6044 7.64733 32.6259 7.04841 32.0536L4.97573 34.2224ZM30.0796 7.95359C30.6786 8.52595 30.7001 9.47545 30.1277 10.0744L32.2966 12.147C34.0137 10.3503 33.9491 7.50179 32.1523 5.78472L30.0796 7.95359ZM30.3091 4.02329C28.5124 2.30622 25.6639 2.37081 23.9468 4.16756L26.1157 6.24025C26.688 5.64133 27.6375 5.6198 28.2365 6.19216L30.3091 4.02329ZM5.20524 30.2921C4.60632 29.7198 4.58479 28.7703 5.15715 28.1714L2.98828 26.0987C1.27122 27.8954 1.33581 30.7439 3.13256 32.461L5.20524 30.2921Z" fill="white"/>
</svg>
