<svg width="12" height="11" viewBox="0 0 12 11" fill="none" xmlns="http://www.w3.org/2000/svg">
    <path fill-rule="evenodd" clip-rule="evenodd" d="M7.18577 3.69367V2.23079H10.5332V0H1.41898V2.23079H4.7664V3.69305C2.04592 3.81794 0 4.35709 0 5.00259C0 5.64808 2.04592 6.18661 4.7664 6.31212V11H7.18577V6.31089C9.90192 6.18599 11.9429 5.64746 11.9429 5.00259C11.9429 4.35771 9.90192 3.81918 7.18577 3.69367ZM7.18577 5.91209V5.91333C9.58473 5.80698 11.3747 5.38964 11.3747 4.88882C11.3747 4.38924 9.58473 3.97066 7.18577 3.86369V5.49784C7.1159 5.50402 6.74183 5.53493 5.99556 5.53493C5.37356 5.53493 4.92344 5.50835 4.7664 5.49722V3.86246C2.36249 3.97004 0.568208 4.38862 0.568208 4.88882C0.568208 5.38964 2.36249 5.80822 4.7664 5.91395V5.91209C4.92097 5.91951 5.36057 5.93806 5.98505 5.93806C6.76718 5.93806 7.11776 5.91704 7.18577 5.91209Z" fill="white" fill-opacity="0.9"/>
</svg>
