<svg width="20" height="18" viewBox="0 0 20 18" fill="none" xmlns="http://www.w3.org/2000/svg">
    <path d="M18.3831 0.711246C18.2013 0.305357 17.6818 0.289121 17.4642 0.67228C16.4576 2.42247 14.6554 3.5135 12.5968 3.5135H9.99908C6.55714 3.5135 3.76462 6.30602 3.76462 9.74796C3.76462 9.97526 3.7906 10.1928 3.81333 10.4136C5.88499 8.92969 8.87558 7.66981 13.1163 7.66981C13.4021 7.66981 13.6358 7.9036 13.6358 8.18935C13.6358 8.47509 13.4021 8.70889 13.1163 8.70889C4.95307 8.70889 1.49164 13.7127 0.725324 15.5928C0.511015 16.122 0.764289 16.726 1.29357 16.9436C1.8261 17.1644 2.43006 16.9078 2.65086 16.3818C2.69957 16.2649 3.32951 14.8264 4.98554 13.4399C6.0376 14.8654 8.03782 16.226 10.6647 15.9467C15.7627 15.5765 19.3508 11.0046 19.3508 5.40657C19.3508 3.77652 19.0001 2.08802 18.3831 0.711246Z" fill="white"/>
</svg>
