<svg width="6" height="9" viewBox="0 0 6 9" fill="none" xmlns="http://www.w3.org/2000/svg">
    <path d="M0.103844 5.73898C0.405303 7.17671 1.66692 7.73993 2.30589 7.93614C2.41489 7.96961 2.48616 7.83782 2.40993 7.75302C2.0791 7.38494 1.57157 6.7071 1.64965 6.08249C1.72571 5.47399 2.05441 5.06759 2.26653 4.86331C2.3361 4.79632 2.43919 4.85272 2.4343 4.94917C2.42441 5.14429 2.41932 5.41952 2.45117 5.62447C2.58507 6.48614 3.5733 7.40278 3.95844 7.73124C4.05213 7.81115 4.18218 7.82934 4.29388 7.77748C5.19193 7.36056 5.96349 6.63622 5.94354 5.62447C5.92467 4.66771 5.18268 3.3966 4.87392 2.9079C4.82214 2.82594 4.70109 2.84598 4.67233 2.93857C4.53159 3.39173 4.40669 3.61779 4.12025 3.87251C4.04908 3.9358 3.93605 3.88407 3.92922 3.78908C3.88189 3.13094 3.62133 1.25845 2.1869 0.587762C2.119 0.556016 2.0416 0.601795 2.02881 0.675646C1.71365 2.49554 -0.272315 3.94499 0.103844 5.73898Z" fill="#151715"/>
    <circle cx="3.13271" cy="4.31924" r="1.23037" fill="#D9D9D9"/>
</svg>
