<svg width="13" height="11" viewBox="0 0 13 11" fill="none" xmlns="http://www.w3.org/2000/svg">
    <path d="M11.8791 0.202595C11.7624 -0.0578462 11.4291 -0.0682638 11.2895 0.177593C10.6436 1.30062 9.48721 2.00068 8.16625 2.00068H6.49943C4.29089 2.00068 2.49905 3.79252 2.49905 6.00106C2.49905 6.14691 2.51572 6.28651 2.5303 6.42819C3.8596 5.47601 5.77853 4.6676 8.49962 4.6676C8.68297 4.6676 8.83298 4.81762 8.83298 5.00097C8.83298 5.18432 8.68297 5.33433 8.49962 5.33433C3.26162 5.33433 1.04058 8.54505 0.548865 9.75142C0.411352 10.091 0.573867 10.4786 0.913483 10.6182C1.25518 10.7598 1.64272 10.5952 1.7844 10.2577C1.81565 10.1827 2.21986 9.2597 3.28246 8.37004C3.95752 9.28471 5.24098 10.1577 6.92655 9.97852C10.1977 9.741 12.5 6.80739 12.5 3.21538C12.5 2.16945 12.275 1.08601 11.8791 0.202595Z" fill="#151715"/>
</svg>
