<svg width="12" height="10" viewBox="0 0 12 10" fill="none" xmlns="http://www.w3.org/2000/svg">
    <path d="M10.4964 0.829125C10.3989 0.61144 10.1203 0.602733 10.0036 0.808228C9.46372 1.74688 8.4972 2.33202 7.3931 2.33202H5.99992C4.15395 2.33202 2.65628 3.82969 2.65628 5.67566C2.65628 5.79756 2.67021 5.91424 2.6824 6.03266C3.79346 5.23681 5.39737 4.56111 7.67174 4.56111C7.82499 4.56111 7.95037 4.6865 7.95037 4.83975C7.95037 4.993 7.82499 5.11839 7.67174 5.11839C3.29366 5.11839 1.43724 7.802 1.02626 8.81032C0.911318 9.09418 1.04715 9.4181 1.33101 9.53477C1.61662 9.6532 1.94053 9.51562 2.05895 9.2335C2.08507 9.17081 2.42292 8.39933 3.31107 7.65572C3.87531 8.42023 4.94806 9.14991 6.35692 9.00014C9.09104 8.80161 11.0154 6.34961 11.0154 3.3473C11.0154 2.47308 10.8273 1.56751 10.4964 0.829125Z" fill="#22F07D"/>
</svg>
