<svg width="21" height="15" viewBox="0 0 21 15" fill="none" xmlns="http://www.w3.org/2000/svg">
    <path fill-rule="evenodd" clip-rule="evenodd" d="M20.9433 14.2887C20.5728 11.7482 18.5616 6.69901 13.4806 6.82604C10.305 6.82604 8.71723 5.23823 7.92333 3.49166C7.12943 1.74508 5.8592 -0.636609 2.84238 0.157289C-0.174428 0.951187 -0.333207 2.06264 0.301911 3.1741C0.585901 3.67108 1.12386 4.00933 1.70286 4.37339C2.41875 4.82351 3.19738 5.31309 3.63629 6.19091C3.65523 6.22879 3.67417 6.26658 3.69307 6.30429C4.46653 7.84752 5.17863 9.26833 3.31873 11.7482C1.41337 14.2887 2.36605 15.5589 5.38286 14.765C6.90715 14.3839 7.28822 13.4418 7.28822 13.0184C8.4526 13.6535 11.7023 14.6062 15.386 13.336C16.5504 14.1828 19.2919 15.5589 20.9433 14.2887ZM3.31873 2.69776C3.6695 2.69776 3.95385 2.41341 3.95385 2.06264C3.95385 1.71188 3.6695 1.42752 3.31873 1.42752C2.96796 1.42752 2.68361 1.71188 2.68361 2.06264C2.68361 2.41341 2.96796 2.69776 3.31873 2.69776Z" fill="white"/>
</svg>
