<svg width="52" height="52" viewBox="0 0 52 52" fill="none" xmlns="http://www.w3.org/2000/svg">
    <path d="M7 50H23C25.7614 50 28 47.7614 28 45V32C28 24.8203 22.1797 19 15 19C7.82031 19 2.00002 24.8203 2.00001 32L2 45C2 47.7614 4.23857 50 7 50Z" stroke="white" stroke-width="3"/>
    <path d="M32.1667 50H45.8333C48.1345 50 50 48.1345 50 45.8333V36C50 29.9249 45.0751 25 39 25C32.9249 25 28 29.9249 28 36L28 45.8333C28 48.1345 29.8655 50 32.1667 50Z" stroke="white" stroke-width="3"/>
    <path d="M23 10C23 14.4183 19.4183 18 15 18C10.5817 18 7 14.4183 7 10C7 5.58172 10.5817 2 15 2C19.4183 2 23 5.58172 23 10Z" stroke="white" stroke-width="3"/>
    <path d="M45 17.5C45 21.0899 42.0898 24 38.5 24C34.9101 24 32 21.0899 32 17.5C32 13.9101 34.9101 11 38.5 11C42.0898 11 45 13.9101 45 17.5Z" stroke="white" stroke-width="3"/>
</svg>
