<svg width="7" height="9" viewBox="0 0 7 9" fill="none" xmlns="http://www.w3.org/2000/svg">
    <path d="M0.0515459 6.09427C0.38074 7.66427 1.75842 8.27931 2.45618 8.49357C2.57521 8.53012 2.65303 8.3862 2.5698 8.2936C2.20853 7.89166 1.6543 7.15145 1.73956 6.46938C1.82262 5.8049 2.18156 5.36112 2.4132 5.13804C2.48917 5.06488 2.60175 5.12647 2.59641 5.2318C2.5856 5.44487 2.58005 5.74542 2.61483 5.96923C2.76104 6.91017 3.84019 7.91114 4.26076 8.26982C4.36308 8.35708 4.50509 8.37694 4.62706 8.32031C5.60774 7.86504 6.45028 7.07406 6.42849 5.96923C6.40789 4.92444 5.59763 3.53639 5.26047 3.00273C5.20392 2.91323 5.07173 2.93512 5.04033 3.03622C4.88664 3.53107 4.75026 3.77793 4.43746 4.05608C4.35974 4.12519 4.23631 4.06871 4.22885 3.96498C4.17717 3.24629 3.89264 1.20154 2.32624 0.46914C2.2521 0.434474 2.16758 0.484464 2.15361 0.565109C1.80946 2.55243 -0.359219 4.13523 0.0515459 6.09427Z" fill="#22F07D"/>
</svg>
