<svg width="19" height="17" viewBox="0 0 19 17" fill="none" xmlns="http://www.w3.org/2000/svg">
    <path d="M17.8201 0.653628C17.6383 0.247739 17.1188 0.231504 16.9012 0.614663C15.8946 2.36486 14.0925 3.45589 12.0338 3.45589H9.43609C5.99415 3.45589 3.20163 6.2484 3.20163 9.69034C3.20163 9.91764 3.22761 10.1352 3.25034 10.356C5.322 8.87207 8.31259 7.61219 12.5533 7.61219C12.8391 7.61219 13.0729 7.84598 13.0729 8.13173C13.0729 8.41748 12.8391 8.65127 12.5533 8.65127C4.39008 8.65127 0.928655 13.6551 0.162336 15.5351C-0.0519737 16.0644 0.201301 16.6684 0.730581 16.8859C1.26311 17.1068 1.86707 16.8502 2.08787 16.3242C2.13658 16.2073 2.76652 14.7688 4.42255 13.3823C5.47461 14.8078 7.47484 16.1683 10.1018 15.8891C15.1997 15.5189 18.7878 10.947 18.7878 5.34895C18.7878 3.7189 18.4371 2.0304 17.8201 0.653628Z" fill="white"/>
</svg>
