<svg width="8" height="11" viewBox="0 0 8 11" fill="none" xmlns="http://www.w3.org/2000/svg">
    <path d="M0.0641427 7.07957C0.473785 9.03326 2.18815 9.79859 3.05642 10.0652C3.20453 10.1107 3.30138 9.93161 3.1978 9.81638C2.74825 9.31622 2.05858 8.39512 2.16468 7.54636C2.26803 6.71949 2.71469 6.16725 3.00294 5.88966C3.09747 5.79862 3.23756 5.87527 3.23092 6.00634C3.21747 6.27147 3.21056 6.64547 3.25384 6.92398C3.43579 8.09487 4.77866 9.34045 5.30201 9.78679C5.42933 9.89538 5.60605 9.92008 5.75782 9.84962C6.97816 9.28309 8.02659 8.2988 7.99949 6.92398C7.97385 5.62386 6.96558 3.8966 6.54602 3.23253C6.47566 3.12116 6.31116 3.14839 6.27209 3.2742C6.08084 3.88998 5.91112 4.19717 5.52188 4.5433C5.42517 4.6293 5.27158 4.55901 5.2623 4.42993C5.19799 3.53561 4.84392 0.991157 2.89473 0.0797777C2.80247 0.0366398 2.69729 0.098847 2.67991 0.199201C2.25166 2.67219 -0.447005 4.64178 0.0641427 7.07957Z" fill="#22F07D"/>
</svg>
