<svg width="17" height="22" viewBox="0 0 17 22" fill="none" xmlns="http://www.w3.org/2000/svg">
    <path d="M0.135422 15.1981C1.00029 19.3228 4.61976 20.9387 6.45292 21.5016C6.76562 21.5976 6.97009 21.2195 6.75142 20.9762C5.80229 19.9202 4.34622 17.9755 4.57021 16.1836C4.78842 14.4378 5.73143 13.2719 6.34001 12.6859C6.53958 12.4937 6.83536 12.6555 6.82133 12.9322C6.79294 13.492 6.77836 14.2816 6.86973 14.8696C7.25386 17.3416 10.089 19.9714 11.1939 20.9137C11.4628 21.143 11.8359 21.1952 12.1563 21.0464C14.7327 19.8503 16.9463 17.7722 16.889 14.8696C16.8349 12.1247 14.7062 8.47798 13.8204 7.07595C13.6718 6.84082 13.3245 6.89831 13.2421 7.16392C12.8383 8.46401 12.48 9.11257 11.6582 9.84333C11.454 10.0249 11.1297 9.87651 11.1101 9.60398C10.9743 7.71583 10.2268 2.34382 6.11154 0.419653C5.91676 0.328577 5.6947 0.459914 5.65801 0.671787C4.75384 5.89292 -0.943747 10.0513 0.135422 15.1981Z" fill="#151715"/>
</svg>
