<svg width="12" height="10" viewBox="0 0 12 10" fill="none" xmlns="http://www.w3.org/2000/svg">
    <path d="M10.4959 0.733788C10.3983 0.516104 10.1197 0.507396 10.003 0.712891C9.46317 1.65155 8.49665 2.23668 7.39255 2.23668H5.99937C4.1534 2.23668 2.65573 3.73435 2.65573 5.58032C2.65573 5.70223 2.66966 5.8189 2.68185 5.93732C3.79291 5.14147 5.39682 4.46578 7.67119 4.46578C7.82444 4.46578 7.94982 4.59116 7.94982 4.74441C7.94982 4.89766 7.82444 5.02305 7.67119 5.02305C3.29311 5.02305 1.43669 7.70667 1.02571 8.71498C0.910768 8.99884 1.0466 9.32276 1.33046 9.43944C1.61607 9.55786 1.93998 9.42028 2.0584 9.13816C2.08452 9.07547 2.42237 8.30399 3.31053 7.56038C3.87476 8.32489 4.94751 9.05457 6.35637 8.9048C9.09049 8.70627 11.0148 6.25427 11.0148 3.25197C11.0148 2.37774 10.8267 1.47218 10.4959 0.733788Z" fill="white"/>
</svg>
