<svg width="11" height="13" viewBox="0 0 11 13" fill="none" xmlns="http://www.w3.org/2000/svg">
    <path d="M0.791574 8.46889C1.28161 10.806 3.3324 11.7215 4.37106 12.0404C4.54824 12.0948 4.66409 11.8806 4.54019 11.7428C4.00242 11.1445 3.17741 10.0426 3.30432 9.02728C3.42796 8.03814 3.96227 7.37753 4.30709 7.04546C4.42017 6.93656 4.58776 7.02825 4.5798 7.18504C4.56372 7.5022 4.55546 7.9496 4.60723 8.28276C4.82488 9.68342 6.43128 11.1734 7.05733 11.7074C7.20963 11.8373 7.42104 11.8668 7.6026 11.7825C9.06241 11.1048 10.3166 9.92738 10.2842 8.28276C10.2535 6.7275 9.04737 4.66128 8.54547 3.86689C8.4613 3.73366 8.26453 3.76624 8.21778 3.91673C7.989 4.65337 7.78598 5.02084 7.32036 5.43489C7.20467 5.53776 7.02094 5.45368 7.00983 5.29927C6.9329 4.22945 6.50935 1.18566 4.17764 0.0954335C4.06728 0.0438301 3.94146 0.118246 3.92067 0.238293C3.40837 3.19659 0.180117 5.5527 0.791574 8.46889Z" fill="#151715"/>
</svg>
