<svg width="26" height="26" viewBox="0 0 50 34" fill="none" xmlns="http://www.w3.org/2000/svg">
    <g filter="url(#filter0_dii_35_32)">
        <path fill-rule="evenodd" clip-rule="evenodd" d="M8.92989 10.7959C7.72895 10.9991 5.94218 11.5419 4.2541 12.2166C2.55094 12.8973 2.35362 13.0321 2.87265 13.1604C3.1729 13.2346 4.31169 13.8159 4.76986 14.1289C4.97175 14.2667 5.68752 14.9136 6.36046 15.5664C8.33395 17.4808 9.13447 18.1149 10.3508 18.7276C12.4197 19.7696 13.9643 19.6062 15.3535 18.1984C15.6788 17.8686 15.9448 17.5513 15.9448 17.493C15.9448 17.334 14.1887 15.5905 13.5372 15.1026C12.3861 14.2408 10.664 13.4491 9.94029 13.4491C9.83319 13.4491 9.74558 13.407 9.74558 13.3555C9.74558 13.216 10.8194 13.3267 11.5032 13.5368C12.6773 13.8975 14.1949 14.7825 15.7125 15.9915C16.1535 16.3428 16.533 16.6303 16.5558 16.6303C16.6419 16.6303 16.5918 16.0982 16.4315 15.3115C15.9317 12.8591 14.6568 11.3544 12.6423 10.8391C11.8873 10.646 9.94951 10.6234 8.92989 10.7959Z" fill="#57C091" fill-opacity="0.9" shape-rendering="crispEdges"/>
    </g>
    <g filter="url(#filter1_dii_35_32)">
        <path fill-rule="evenodd" clip-rule="evenodd" d="M32.7831 2.60432C23.5296 2.80302 18.1095 5.26315 16.8813 9.82205C16.5179 11.1707 16.5035 12.6832 16.8369 14.4721C16.9567 15.115 17.3379 16.5265 17.4458 16.727C17.485 16.7996 17.712 16.4458 18.1002 15.7074C20.2187 11.678 22.4349 9.01712 24.5068 8.01553C25.3981 7.5846 25.5404 7.6218 24.8301 8.09988C22.5229 9.65304 20.6024 12.5768 19.2362 16.6159C19.0068 17.2939 18.9556 17.5365 19.0264 17.6088C19.214 17.8002 20.0352 18.1947 20.7924 18.4573C21.4904 18.6993 21.6605 18.7263 22.5054 18.7292C23.0309 18.7311 23.6407 18.684 23.892 18.6221C24.9365 18.3649 26.3029 17.4922 27.2456 16.48C28.7714 14.8419 29.978 12.7337 31.2763 9.43777C32.578 6.13308 33.1849 5.08761 34.6806 3.57271C35.1635 3.08362 35.549 2.67496 35.5372 2.66468C35.4944 2.62748 33.6193 2.58637 32.7831 2.60432Z" fill="#57C091" fill-opacity="0.9" shape-rendering="crispEdges"/>
    </g>
    <defs>
        <filter id="filter0_dii_35_32" x="0.619995" y="2.67932" width="29.9775" height="30.7208" filterUnits="userSpaceOnUse" color-interpolation-filters="sRGB">
            <feFlood flood-opacity="0" result="BackgroundImageFix"/>
            <feColorMatrix in="SourceAlpha" type="matrix" values="0 0 0 0 0 0 0 0 0 0 0 0 0 0 0 0 0 0 127 0" result="hardAlpha"/>
            <feOffset dx="6" dy="6"/>
            <feGaussianBlur stdDeviation="4"/>
            <feComposite in2="hardAlpha" operator="out"/>
            <feColorMatrix type="matrix" values="0 0 0 0 0.298039 0 0 0 0 0.631373 0 0 0 0 0.482353 0 0 0 0.4 0"/>
            <feBlend mode="normal" in2="BackgroundImageFix" result="effect1_dropShadow_35_32"/>
            <feBlend mode="normal" in="SourceGraphic" in2="effect1_dropShadow_35_32" result="shape"/>
            <feColorMatrix in="SourceAlpha" type="matrix" values="0 0 0 0 0 0 0 0 0 0 0 0 0 0 0 0 0 0 127 0" result="hardAlpha"/>
            <feOffset dx="-1" dy="-13"/>
            <feGaussianBlur stdDeviation="4"/>
            <feComposite in2="hardAlpha" operator="arithmetic" k2="-1" k3="1"/>
            <feColorMatrix type="matrix" values="0 0 0 0 0.294118 0 0 0 0 0.647059 0 0 0 0 0.490196 0 0 0 1 0"/>
            <feBlend mode="normal" in2="shape" result="effect2_innerShadow_35_32"/>
            <feColorMatrix in="SourceAlpha" type="matrix" values="0 0 0 0 0 0 0 0 0 0 0 0 0 0 0 0 0 0 127 0" result="hardAlpha"/>
            <feOffset dx="-2" dy="5"/>
            <feGaussianBlur stdDeviation="6.5"/>
            <feComposite in2="hardAlpha" operator="arithmetic" k2="-1" k3="1"/>
            <feColorMatrix type="matrix" values="0 0 0 0 0 0 0 0 0 0.316667 0 0 0 0 0.174921 0 0 0 1 0"/>
            <feBlend mode="normal" in2="effect2_innerShadow_35_32" result="effect3_innerShadow_35_32"/>
        </filter>
        <filter id="filter1_dii_35_32" x="14.5974" y="-5.40002" width="34.9401" height="38.1293" filterUnits="userSpaceOnUse" color-interpolation-filters="sRGB">
            <feFlood flood-opacity="0" result="BackgroundImageFix"/>
            <feColorMatrix in="SourceAlpha" type="matrix" values="0 0 0 0 0 0 0 0 0 0 0 0 0 0 0 0 0 0 127 0" result="hardAlpha"/>
            <feOffset dx="6" dy="6"/>
            <feGaussianBlur stdDeviation="4"/>
            <feComposite in2="hardAlpha" operator="out"/>
            <feColorMatrix type="matrix" values="0 0 0 0 0.298039 0 0 0 0 0.631373 0 0 0 0 0.482353 0 0 0 0.4 0"/>
            <feBlend mode="normal" in2="BackgroundImageFix" result="effect1_dropShadow_35_32"/>
            <feBlend mode="normal" in="SourceGraphic" in2="effect1_dropShadow_35_32" result="shape"/>
            <feColorMatrix in="SourceAlpha" type="matrix" values="0 0 0 0 0 0 0 0 0 0 0 0 0 0 0 0 0 0 127 0" result="hardAlpha"/>
            <feOffset dx="-1" dy="-13"/>
            <feGaussianBlur stdDeviation="4"/>
            <feComposite in2="hardAlpha" operator="arithmetic" k2="-1" k3="1"/>
            <feColorMatrix type="matrix" values="0 0 0 0 0.294118 0 0 0 0 0.647059 0 0 0 0 0.490196 0 0 0 1 0"/>
            <feBlend mode="normal" in2="shape" result="effect2_innerShadow_35_32"/>
            <feColorMatrix in="SourceAlpha" type="matrix" values="0 0 0 0 0 0 0 0 0 0 0 0 0 0 0 0 0 0 127 0" result="hardAlpha"/>
            <feOffset dx="-2" dy="5"/>
            <feGaussianBlur stdDeviation="6.5"/>
            <feComposite in2="hardAlpha" operator="arithmetic" k2="-1" k3="1"/>
            <feColorMatrix type="matrix" values="0 0 0 0 0 0 0 0 0 0.316667 0 0 0 0 0.174921 0 0 0 1 0"/>
            <feBlend mode="normal" in2="effect2_innerShadow_35_32" result="effect3_innerShadow_35_32"/>
        </filter>
    </defs>
</svg>
