<svg width="62" height="57" viewBox="0 0 62 57" fill="none" xmlns="http://www.w3.org/2000/svg">
    <path d="M31 2V12M6 8L11.5919 16.2904M55.1838 8.14517L49.5919 16.4355M31 55.4355V45.4355M6 49.4355L11.5919 41.1452M55.1838 49.2904L49.5919 41M31.5 34C28.4624 34 26 31.5376 26 28.5C26 25.4624 28.4624 23 31.5 23C34.5376 23 37 25.4624 37 28.5M2 28.5C2 28.5 7.80006 13 31 13C54.1999 13 60 28.5 60 28.5C60 28.5 54.1999 44 31 44C7.80006 44 2 28.5 2 28.5ZM45 28.5C45 35.9558 38.9558 42 31.5 42C24.0442 42 18 35.9558 18 28.5C18 21.0442 24.0442 15 31.5 15C38.9558 15 45 21.0442 45 28.5Z" stroke="white" stroke-width="3" stroke-linecap="round"/>
</svg>
