<svg width="44" height="38" viewBox="0 0 44 38" fill="none" xmlns="http://www.w3.org/2000/svg">
    <g opacity="0.68">
        <path fill-rule="evenodd" clip-rule="evenodd" d="M17.1682 12.1938C17.1682 11.4107 17.803 10.7759 18.5861 10.7759H25.9592C26.7423 10.7759 27.3771 11.4107 27.3771 12.1938C27.3771 12.9769 28.0119 13.6118 28.7951 13.6118H35.0338C35.8169 13.6118 36.4517 12.9769 36.4517 12.1938C36.4517 11.4107 37.0866 10.7759 37.8697 10.7759H41.5565C42.8095 10.7759 43.8252 11.7916 43.8252 13.0445V35.7311C43.8252 36.984 42.8095 37.9998 41.5565 37.9998H33.3326C32.8628 37.9998 32.4819 37.6189 32.4819 37.149C32.4819 36.6792 32.101 36.2983 31.6311 36.2983H12.9147C12.4449 36.2983 12.064 36.6792 12.064 37.149C12.064 37.6189 11.6831 37.9998 11.2132 37.9998H2.98936C1.73642 37.9998 0.720703 36.984 0.720703 35.7311V13.0445C0.720703 11.7916 1.73641 10.7759 2.98936 10.7759H6.67559C7.4587 10.7759 8.09353 11.4107 8.09353 12.1938C8.09353 12.9769 8.72837 13.6118 9.51148 13.6118H15.7502C16.5333 13.6118 17.1682 12.9769 17.1682 12.1938ZM19.4371 22.1192C19.4371 20.8662 20.4528 19.8505 21.7058 19.8505H22.8401C24.0931 19.8505 25.1088 20.8662 25.1088 22.1192V25.2386C25.1088 25.7084 24.7279 26.0893 24.258 26.0893C23.7882 26.0893 23.4073 26.4702 23.4073 26.9401V28.358C23.4073 28.9844 22.8994 29.4923 22.2729 29.4923C21.6465 29.4923 21.1386 28.9844 21.1386 28.358V26.9401C21.1386 26.4702 20.7577 26.0893 20.2879 26.0893C19.818 26.0893 19.4371 25.7084 19.4371 25.2386V22.1192Z" fill="white"/>
        <path fill-rule="evenodd" clip-rule="evenodd" d="M9.79581 1.70125V2.83558V9.64155C9.79581 10.5813 10.5576 11.343 11.4973 11.343H13.766C14.7057 11.343 15.4675 10.5813 15.4675 9.64155V6.23856C15.4675 5.29885 16.2292 4.53707 17.1689 4.53707H27.3779C28.3176 4.53707 29.0794 5.29885 29.0794 6.23856V9.64155C29.0794 10.5813 29.8412 11.343 30.7809 11.343H33.0495C33.9893 11.343 34.751 10.5813 34.751 9.64155V2.83558V1.70125C34.751 0.76154 33.9893 -0.000244141 33.0495 -0.000244141H11.4973C10.5576 -0.000244141 9.79581 0.76154 9.79581 1.70125Z" fill="white"/>
    </g>
</svg>
