<svg width="20" height="19" viewBox="0 0 20 19" fill="none" xmlns="http://www.w3.org/2000/svg">
    <path d="M7.77246 6.22654L4.28069 4.089L5.55052 2.00467C5.55052 2.00467 6.76237 0.43619 8.16871 1.31852C8.16871 1.31852 8.92257 1.54421 9.63147 3.21119L7.77246 6.22654Z" fill="white"/>
    <path d="M12.5717 0.614616C12.5717 0.614616 13.5051 0.641474 14.538 2.30576L15.6626 4.21123L16.4576 3.7819L15.6336 5.58332L14.8107 7.38555L12.8529 7.08602L10.894 6.78627L12.0432 6.16521L10.0715 2.51462C10.0715 2.51462 9.31572 0.796139 7.93682 0.620629L12.5717 0.614616Z" fill="white"/>
    <path d="M18.7556 9.60224C18.7556 9.60224 19.5593 11.4151 18.114 12.2325C18.114 12.2325 17.5585 12.7887 15.7548 12.6205L13.9849 9.55217L17.5249 7.49582L18.7556 9.60224Z" fill="white"/>
    <path d="M16.8688 16.4718C16.8688 16.4718 16.4015 17.2792 14.4464 17.3973L12.2345 17.4808V18.3853L11.0408 16.804L9.84645 15.223L11.0408 13.6424L12.2345 12.0614V13.3684H16.3845C16.3845 13.3684 18.2558 13.5194 19.0654 12.3901L16.8688 16.4718Z" fill="white"/>
    <path d="M8.36806 17.4003L5.9272 17.3598C5.9272 17.3598 3.96083 17.109 4.01036 15.4484C4.01036 15.4484 3.82344 14.6846 4.90282 13.2299L8.44426 13.3062L8.36806 17.4003Z" fill="white"/>
    <path d="M3.39476 16.0753L1.04526 12.0818C1.04526 12.0818 0.595737 11.2632 1.50849 9.53056L2.58218 7.59539L1.80959 7.12735L3.78062 6.92538L5.75176 6.72385L6.48365 8.56441L7.21707 10.4053L6.10023 9.72761L3.94888 13.2762C3.94888 13.2762 2.84847 14.7985 3.39476 16.0753Z" fill="white"/>
</svg>
