<svg width="35" height="35" viewBox="0 0 35 35" fill="none" xmlns="http://www.w3.org/2000/svg">
    <g opacity="0.8">
        <g opacity="0.3" filter="url(#filter0_f_58_1223)">
            <path d="M23.514 18.7246C23.5539 18.4455 23.5938 18.1664 23.5938 17.8474C23.5938 17.5284 23.5539 17.2493 23.514 16.9702L25.3082 15.6944C25.4677 15.5747 25.5475 15.3355 25.4278 15.1362L23.6735 12.1857C23.5539 11.9863 23.3545 11.9066 23.1552 12.0262L21.1616 12.9432C20.6831 12.5844 20.2047 12.3053 19.6465 12.0661L19.4471 9.87313C19.4073 9.67377 19.2478 9.51428 19.0484 9.51428H15.6195C15.4201 9.51428 15.2208 9.67377 15.2208 9.87313L15.0214 12.0661C14.4632 12.3053 13.9449 12.5844 13.5063 12.9432L11.5127 12.0262C11.3134 11.9464 11.0741 12.0262 10.9944 12.1857L9.27991 15.1362C9.1603 15.3355 9.24004 15.5747 9.39953 15.6944L11.1937 16.9702C11.1539 17.2493 11.114 17.5284 11.114 17.8474C11.114 18.1664 11.1539 18.4455 11.1937 18.7246L9.31978 20.0005C9.1603 20.1201 9.08056 20.3593 9.20017 20.5587L10.9146 23.5092C11.0343 23.7085 11.2336 23.7883 11.433 23.6686L13.4265 22.7516C13.905 23.1104 14.3835 23.3895 14.9417 23.6288L15.141 25.8217C15.1809 26.0211 15.3404 26.1805 15.5397 26.1805H18.9687C19.168 26.1805 19.3674 26.0211 19.3674 25.8217L19.5667 23.6288C20.1249 23.3895 20.6433 23.1104 21.0819 22.7516L23.0754 23.6686C23.2748 23.7484 23.514 23.6686 23.5938 23.5092L25.3082 20.5587C25.4278 20.3593 25.3481 20.1201 25.1886 20.0005L23.514 18.7246ZM17.2941 21.8346C15.1011 21.8346 13.3069 20.0403 13.3069 17.8474C13.3069 15.6545 15.1011 13.8603 17.2941 13.8603C19.487 13.8603 21.2812 15.6545 21.2812 17.8474C21.2812 20.0403 19.487 21.8346 17.2941 21.8346Z" fill="#FFFFFF"/>
            <path d="M17.3624 11.9806C14.167 11.9806 11.5526 14.595 11.5526 17.7904C11.5526 20.9858 14.167 23.6003 17.3624 23.6003C20.5578 23.6003 23.1723 20.9858 23.1723 17.7904C23.1723 14.595 20.5578 11.9806 17.3624 11.9806ZM17.3624 20.2112C16.0068 20.2112 14.9417 19.146 14.9417 17.7904C14.9417 16.4348 16.0068 15.3696 17.3624 15.3696C18.7181 15.3696 19.7832 16.4348 19.7832 17.7904C19.7832 19.146 18.7181 20.2112 17.3624 20.2112Z" fill="#FFFFFF"/>
        </g>
        <path d="M23.514 18.7246C23.5539 18.4455 23.5938 18.1664 23.5938 17.8474C23.5938 17.5284 23.5539 17.2493 23.514 16.9702L25.3082 15.6944C25.4677 15.5747 25.5475 15.3355 25.4278 15.1362L23.6735 12.1857C23.5539 11.9863 23.3545 11.9066 23.1552 12.0262L21.1616 12.9432C20.6831 12.5844 20.2047 12.3053 19.6465 12.0661L19.4471 9.87313C19.4073 9.67377 19.2478 9.51428 19.0484 9.51428H15.6195C15.4201 9.51428 15.2208 9.67377 15.2208 9.87313L15.0214 12.0661C14.4632 12.3053 13.9449 12.5844 13.5063 12.9432L11.5127 12.0262C11.3134 11.9464 11.0741 12.0262 10.9944 12.1857L9.27991 15.1362C9.1603 15.3355 9.24004 15.5747 9.39953 15.6944L11.1937 16.9702C11.1539 17.2493 11.114 17.5284 11.114 17.8474C11.114 18.1664 11.1539 18.4455 11.1937 18.7246L9.31978 20.0005C9.1603 20.1201 9.08056 20.3593 9.20017 20.5587L10.9146 23.5092C11.0343 23.7085 11.2336 23.7883 11.433 23.6686L13.4265 22.7516C13.905 23.1104 14.3835 23.3895 14.9417 23.6288L15.141 25.8217C15.1809 26.0211 15.3404 26.1805 15.5397 26.1805H18.9687C19.168 26.1805 19.3674 26.0211 19.3674 25.8217L19.5667 23.6288C20.1249 23.3895 20.6433 23.1104 21.0819 22.7516L23.0754 23.6686C23.2748 23.7484 23.514 23.6686 23.5938 23.5092L25.3082 20.5587C25.4278 20.3593 25.3481 20.1201 25.1886 20.0005L23.514 18.7246ZM17.2941 21.8346C15.1011 21.8346 13.3069 20.0403 13.3069 17.8474C13.3069 15.6545 15.1011 13.8603 17.2941 13.8603C19.487 13.8603 21.2812 15.6545 21.2812 17.8474C21.2812 20.0403 19.487 21.8346 17.2941 21.8346Z" fill="#FFFFFF"/>
        <path d="M17.3624 11.9806C14.167 11.9806 11.5526 14.595 11.5526 17.7904C11.5526 20.9858 14.167 23.6003 17.3624 23.6003C20.5578 23.6003 23.1723 20.9858 23.1723 17.7904C23.1723 14.595 20.5578 11.9806 17.3624 11.9806ZM17.3624 20.2112C16.0068 20.2112 14.9417 19.146 14.9417 17.7904C14.9417 16.4348 16.0068 15.3696 17.3624 15.3696C18.7181 15.3696 19.7832 16.4348 19.7832 17.7904C19.7832 19.146 18.7181 20.2112 17.3624 20.2112Z" fill="#FFFFFF"/>
    </g>
    <defs>
        <filter id="filter0_f_58_1223" x="0.342578" y="0.714282" width="33.9428" height="34.2663" filterUnits="userSpaceOnUse" color-interpolation-filters="sRGB">
            <feFlood flood-opacity="0" result="BackgroundImageFix"/>
            <feBlend mode="normal" in="SourceGraphic" in2="BackgroundImageFix" result="shape"/>
            <feGaussianBlur stdDeviation="4.4" result="effect1_foregroundBlur_58_1223"/>
        </filter>
    </defs>
</svg>
