<svg width="52" height="64" viewBox="0 0 52 64" fill="none" xmlns="http://www.w3.org/2000/svg">
    <path d="M13.0128 11H7C4.23858 11 2 13.2386 2 16V57C2 59.7614 4.23858 62 7 62H45C47.7614 62 50 59.7614 50 57V16C50 13.2386 47.7614 11 45 11H39M30 29H40M30 48H40M30 34H43.5M30 53H43.5M30.6459 4.7282L30.5466 4.30883C30.2263 2.95564 29.0179 2 27.6273 2H24.3727C22.9821 2 21.7737 2.95564 21.4534 4.30883L21.3541 4.7282C21.1453 5.61005 20.3696 6.24131 19.4638 6.26664L17.2149 6.32952C14.8683 6.39513 13 8.31636 13 10.6639C13 13.0587 14.9413 15 17.3361 15H34.6639C37.0587 15 39 13.0587 39 10.6639C39 8.31636 37.1317 6.39513 34.7851 6.32952L32.5362 6.26664C31.6304 6.24131 30.8547 5.61005 30.6459 4.7282ZM16 24H20C21.6569 24 23 25.3431 23 27V31C23 32.6569 21.6569 34 20 34H16C14.3431 34 13 32.6569 13 31V27C13 25.3431 14.3431 24 16 24ZM16 43H20C21.6569 43 23 44.3431 23 46V50C23 51.6569 21.6569 53 20 53H16C14.3431 53 13 51.6569 13 50V46C13 44.3431 14.3431 43 16 43Z" stroke="white" stroke-width="3" stroke-linecap="round"/>
</svg>
