<svg width="28" height="22" viewBox="0 0 28 22" fill="none" xmlns="http://www.w3.org/2000/svg">
    <path fill-rule="evenodd" clip-rule="evenodd" d="M9.65744 18.971C8.97644 18.447 8.57138 17.8201 8.57138 17.0944V13.2381C8.57569 13.208 8.58254 13.1783 8.59186 13.1493C8.58123 13.0999 8.57438 13.0497 8.57138 12.9992C8.57138 10.467 13.3764 9.14285 18.1269 9.14285C22.8773 9.14285 27.6824 10.467 27.6824 12.9992C27.6794 13.0497 27.6725 13.0999 27.6619 13.1493C27.6712 13.1783 27.6781 13.208 27.6824 13.2381V17.0944C27.6794 17.3576 27.6237 17.6175 27.5186 17.8588C27.5218 17.8608 27.525 17.8628 27.5283 17.8648C25.964 19.9961 22.8757 21.4285 18.4681 21.4285C14.8757 21.4285 11.7549 20.4769 9.65744 18.971ZM18.8094 16.8419C20.421 16.8129 22.0239 16.5999 23.5872 16.2071V18.8826C22.0172 19.3184 20.3976 19.5501 18.7685 19.572C18.7925 19.511 18.8063 19.4464 18.8094 19.3809V16.8419ZM17.4853 19.572C15.8561 19.5501 14.2366 19.3184 12.6666 18.8826V16.2071C14.2298 16.5999 15.8328 16.8129 17.4443 16.8419V19.3809C17.4474 19.4464 17.4612 19.511 17.4853 19.572ZM24.9181 15.7839C25.4086 15.6009 25.8777 15.3652 26.3173 15.0809V17.0944C26.3173 17.4903 25.8327 17.9544 24.9522 18.3707V15.9682C24.9475 15.9057 24.936 15.844 24.9181 15.7839ZM11.3015 18.3707C10.4211 17.9544 9.93645 17.4903 9.93645 17.0944V15.0809C10.376 15.3652 10.8452 15.6009 11.3356 15.7839C11.3177 15.844 11.3063 15.9057 11.3015 15.9682V18.3707Z" fill="black"/>
    <path fill-rule="evenodd" clip-rule="evenodd" d="M1.48977 10.7814C1.49142 10.7771 1.49308 10.7728 1.49475 10.7686L1.5357 10.7071C0.58698 10.127 0 9.39666 0 8.52301V4.66668C0.00430799 4.63658 0.0111583 4.6069 0.0204765 4.57795C0.00984957 4.52849 0.00300396 4.4783 0 4.4278C0 1.89559 4.80505 0.571472 9.5555 0.571472C14.3059 0.571472 19.111 1.89559 19.111 4.4278C19.108 4.4783 19.1011 4.52849 19.0905 4.57795C19.0998 4.6069 19.1067 4.63658 19.111 4.66668V8.52301C19.108 8.7862 19.0523 9.04613 18.9472 9.28745C19.2324 9.46355 19.467 9.6425 19.6594 9.82064C17.4967 11.6576 13.9302 12.8571 9.89676 12.8571C6.61818 12.8571 3.64813 12.0646 1.48977 10.7814ZM10.238 8.27047C11.8496 8.24148 13.4526 8.02852 15.0158 7.63571V10.3113C13.4458 10.747 11.8263 10.9787 10.1971 11.0006C10.2211 10.9396 10.235 10.875 10.238 10.8095V8.27047ZM8.91391 11.0006C7.28474 10.9787 5.66517 10.747 4.09521 10.3113V7.63571C5.65843 8.02852 7.2614 8.24148 8.87296 8.27047V10.8095C8.87602 10.875 8.88986 10.9396 8.91391 11.0006ZM16.3467 7.21254C16.8372 7.02952 17.3063 6.7938 17.7459 6.50953V8.52301C17.7459 8.91888 17.2613 9.383 16.3808 9.79935V7.39683C16.3761 7.33435 16.3647 7.27257 16.3467 7.21254ZM2.73014 9.79935C1.84967 9.383 1.36507 8.91888 1.36507 8.52301V6.50953C1.80466 6.7938 2.27381 7.02952 2.76427 7.21254C2.74633 7.27257 2.73489 7.33435 2.73014 7.39683V9.79935Z" fill="black"/>
</svg>
