<svg width="9" height="11" viewBox="0 0 9 11" fill="none" xmlns="http://www.w3.org/2000/svg">
    <g opacity="0.8">
        <path fill-rule="evenodd" clip-rule="evenodd" d="M2.45645 1.43512C2.45645 1.17074 2.67077 0.956421 2.93515 0.956421H4.84993C5.1143 0.956421 5.32862 1.17074 5.32862 1.43512C5.32862 1.69949 5.1143 1.91381 4.84993 1.91381H2.93515C2.67077 1.91381 2.45645 1.69949 2.45645 1.43512ZM6.51547 1.95666C6.70241 1.76971 7.0055 1.76971 7.19245 1.95666L8.14983 2.91405C8.33678 3.10099 8.33678 3.40408 8.14983 3.59102C7.96289 3.77796 7.6598 3.77796 7.47286 3.59102L6.51547 2.63363C6.32853 2.44669 6.32853 2.1436 6.51547 1.95666Z" fill="#151715"/>
        <path fill-rule="evenodd" clip-rule="evenodd" d="M0.0629883 6.21397C0.0629883 8.32899 1.77754 10.0435 3.89255 10.0435C6.00757 10.0435 7.72211 8.32899 7.72211 6.21397C7.72211 4.09896 6.00757 2.38441 3.89255 2.38441C1.77754 2.38441 0.0629883 4.09896 0.0629883 6.21397ZM3.89254 3.78803C3.72817 3.78803 3.59196 3.91546 3.58103 4.07946L3.43811 6.22315C3.42059 6.48602 3.62909 6.70888 3.89254 6.70888C4.15599 6.70888 4.36449 6.48602 4.34697 6.22315L4.20405 4.07946C4.19312 3.91546 4.05691 3.78803 3.89254 3.78803Z" fill="#151715"/>
    </g>
</svg>
